<?xml version="1.0" encoding="iso-8859-1"?>
<!-- Generator: Adobe Illustrator 19.0.0, SVG Export Plug-In . SVG Version: 6.00 Build 0)  -->
<svg version="1.1" id="Capa_1" xmlns="http://www.w3.org/2000/svg" xmlns:xlink="http://www.w3.org/1999/xlink" x="0px" y="0px"
	 viewBox="0 0 503.44 503.44" style="enable-background:new 0 0 503.44 503.44;" xml:space="preserve">
<g>
	<g>
		<g>
			<path d="M488.48,192.728c-43.372-27.095-100.161-17.418-132.112,22.512l-14.224,17.76l-73.216,29.296h-79.2l54.112-30.064
				c26.558-14.734,36.143-48.207,21.41-74.765c-0.469-0.846-0.961-1.679-1.474-2.499c-14.725-23.434-44.536-32.331-69.696-20.8
				l-75.376,34.8l-45.328,45.328H0v32h86.624l50.672-50.672l70.192-32.384c11.602-5.204,25.226-0.016,30.43,11.586
				c4.856,10.828,0.687,23.574-9.63,29.438l-54.112,30.064c-15.446,8.588-21.006,28.071-12.418,43.518
				c5.648,10.16,16.362,16.457,27.986,16.45h85.328l86.784-34.704l19.504-24.352c17.576-22.019,46.814-31.076,73.76-22.848
				l-65.6,85.232l-89.296,44.672H128v32h179.776l102.656-51.328l93.008-120.896L488.48,192.728z"/>
			<rect x="64" y="342.296" width="32" height="32"/>
			<rect y="342.296" width="32" height="32"/>
		</g>
	</g>
</g>
<g>
</g>
<g>
</g>
<g>
</g>
<g>
</g>
<g>
</g>
<g>
</g>
<g>
</g>
<g>
</g>
<g>
</g>
<g>
</g>
<g>
</g>
<g>
</g>
<g>
</g>
<g>
</g>
<g>
</g>
</svg>
