<?xml version="1.0" encoding="iso-8859-1"?>
<!-- Generator: Adobe Illustrator 19.0.0, SVG Export Plug-In . SVG Version: 6.00 Build 0)  -->
<svg version="1.1" id="Capa_1" xmlns="http://www.w3.org/2000/svg" xmlns:xlink="http://www.w3.org/1999/xlink" x="0px" y="0px"
	 viewBox="0 0 490.667 490.667" style="enable-background:new 0 0 490.667 490.667;" xml:space="preserve">
<g>
	<g>
		<path d="M416,288c-17.643,0-32,14.357-32,32c0,29.397-23.936,53.333-53.333,53.333H160c-29.397,0-53.333-23.936-53.333-53.333
			c0-17.643-14.357-32-32-32H0v138.667C0,456.064,23.936,480,53.333,480h384c29.397,0,53.333-23.936,53.333-53.333V288H416z"/>
	</g>
</g>
<g>
	<g>
		<path d="M295.531,227.136c-4.16-4.16-10.923-4.16-15.083,0L256,251.584V21.333c0-5.888-4.779-10.667-10.667-10.667
			s-10.667,4.779-10.667,10.667v256c0,4.309,2.603,8.213,6.592,9.856c1.323,0.555,2.709,0.811,4.075,0.811
			c2.773,0,5.504-1.088,7.531-3.115l42.667-42.667C299.691,238.059,299.691,231.296,295.531,227.136z"/>
	</g>
</g>
<g>
	<g>
		<path d="M478.123,244.629l-76.907-115.371C387.328,108.437,364.096,96,339.093,96h-61.76v108.48
			c3.392-1.195,6.976-1.813,10.667-1.813c8.533,0,16.576,3.328,22.635,9.365c12.48,12.48,12.48,32.768,0,45.248l-42.667,42.667
			c-6.059,6.059-14.101,9.387-22.635,9.387c-7.104,0-13.803-2.432-19.349-6.677c-0.661-0.491-1.28-1.003-1.899-1.557
			c-0.448-0.405-0.96-0.704-1.387-1.131l-42.667-42.667c-6.037-6.059-9.365-14.101-9.365-22.635s3.328-16.576,9.365-22.635
			s14.101-9.365,22.635-9.365c3.712,0,7.275,0.747,10.667,1.941V96h-50.027c-32.384,0-62.357,16.149-80.171,43.179L14.443,243.456
			c-5.184,7.104-8.896,14.955-11.307,23.211h71.531C104.064,266.667,128,290.603,128,320c0,17.643,14.357,32,32,32h170.667
			c17.643,0,32-14.357,32-32c0-29.397,23.936-53.333,53.333-53.333h71.979C485.888,258.88,482.667,251.435,478.123,244.629z"/>
	</g>
</g>
<g>
	<g>
		<path d="M252.864,269.803l-42.667-42.667c-4.16-4.16-10.923-4.16-15.083,0c-4.16,4.16-4.16,10.923,0,15.083l42.667,42.667
			c2.091,2.069,4.821,3.115,7.552,3.115s5.461-1.045,7.531-3.115C257.024,280.725,257.024,273.963,252.864,269.803z"/>
	</g>
</g>
<g>
</g>
<g>
</g>
<g>
</g>
<g>
</g>
<g>
</g>
<g>
</g>
<g>
</g>
<g>
</g>
<g>
</g>
<g>
</g>
<g>
</g>
<g>
</g>
<g>
</g>
<g>
</g>
<g>
</g>
</svg>
